<svg xmlns="http://www.w3.org/2000/svg" width="32" height="32" viewBox="0 0 32 32" fill="none">
<g clip-path="url(#clip0_651_2434)">
<circle cx="16" cy="16" r="15.5" stroke="#05081D"/>
<path d="M10.0396 24C9.46575 24 9 23.5342 9 22.9604V13.5511C9 12.9772 9.46575 12.5114 10.0396 12.5114C10.6135 12.5114 11.0793 12.9772 11.0793 13.5511V22.9604C11.0793 23.5342 10.6135 24 10.0396 24ZM20.4193 13.5032H17.2491L18.1972 10.9402C18.5784 9.9096 18.1674 8.75838 17.2193 8.20322C16.892 8.01027 16.5026 7.95185 16.1331 8.04028C15.7637 8.12871 15.4429 8.35708 15.2385 8.67729L12.2554 13.3237C12.2185 13.3811 12.1932 13.4453 12.1811 13.5124C12.169 13.5796 12.1703 13.6485 12.1848 13.7152C12.1994 13.7819 12.2269 13.8451 12.2659 13.9011C12.3049 13.9572 12.3546 14.005 12.4121 14.0418C12.6532 14.197 12.9748 14.127 13.1301 13.8851L16.1131 9.23869C16.173 9.1449 16.2669 9.07802 16.3752 9.05216C16.4834 9.0263 16.5974 9.04348 16.6932 9.10007C16.9413 9.24519 17.1303 9.47307 17.227 9.74369C17.3237 10.0143 17.3219 10.3103 17.2221 10.5798L16.0147 13.8428C15.9558 14.0023 15.9787 14.1804 16.0757 14.3204C16.1727 14.4597 16.3321 14.5429 16.5026 14.5429H20.4193C20.8594 14.5429 21.2711 14.7383 21.5497 15.0786C21.8283 15.4189 21.9378 15.8618 21.8498 16.2929L20.8795 21.071C20.7415 21.7489 20.1399 22.2403 19.4489 22.2403H12.5389C12.252 22.2403 12.0191 22.4731 12.0191 22.7601C12.0191 23.047 12.252 23.2799 12.5389 23.2799H19.4489C20.6327 23.2799 21.6626 22.4378 21.8983 21.2776L22.8686 16.4987C23.0183 15.7606 22.8312 15.0031 22.3543 14.4195C21.8775 13.8366 21.1726 13.5032 20.4193 13.5032Z" fill="#05081D"/>
</g>
<defs>
<clipPath id="clip0_651_2434">
<rect width="32" height="32" fill="white"/>
</clipPath>
</defs>
</svg>