<svg width="14" height="14" viewBox="0 0 14 14" fill="none" xmlns="http://www.w3.org/2000/svg">
<path fill-rule="evenodd" clip-rule="evenodd" d="M1.39598 1.04153C1.20071 1.04153 1.04158 1.20027 1.04158 1.39552V4.9671C1.04158 5.16236 1.20071 5.32221 1.39598 5.32221H4.96761C5.16289 5.32221 5.32201 5.16236 5.32201 4.9671V1.39552C5.32201 1.20027 5.16289 1.04153 4.96761 1.04153H1.39598ZM4.96763 6.36364H1.39601C0.626078 6.36364 0 5.73726 0 4.96705V1.39547C0 0.625259 0.626078 0 1.39601 0H4.96763C5.73756 0 6.36364 0.625259 6.36364 1.39547V4.96705C6.36364 5.73726 5.73756 6.36364 4.96763 6.36364Z" fill="#333333"/>
<path fill-rule="evenodd" clip-rule="evenodd" d="M1.39598 8.67796C1.20071 8.67796 1.04158 8.8367 1.04158 9.03196V12.6035C1.04158 12.7988 1.20071 12.9586 1.39598 12.9586H4.96761C5.16289 12.9586 5.32201 12.7988 5.32201 12.6035V9.03196C5.32201 8.8367 5.16289 8.67796 4.96761 8.67796H1.39598ZM4.96763 14H1.39601C0.626078 14 0 13.3736 0 12.6034V9.03182C0 8.26161 0.626078 7.63635 1.39601 7.63635H4.96763C5.73756 7.63635 6.36364 8.26161 6.36364 9.03182V12.6034C6.36364 13.3736 5.73756 14 4.96763 14Z" fill="#333333"/>
<path fill-rule="evenodd" clip-rule="evenodd" d="M9.03237 1.04153C8.83709 1.04153 8.67796 1.20027 8.67796 1.39552V4.9671C8.67796 5.16236 8.83709 5.32221 9.03237 5.32221H12.604C12.7993 5.32221 12.9584 5.16236 12.9584 4.9671V1.39552C12.9584 1.20027 12.7993 1.04153 12.604 1.04153H9.03237ZM12.604 6.36364H9.03236C8.26243 6.36364 7.63635 5.73726 7.63635 4.96705V1.39547C7.63635 0.625259 8.26243 0 9.03236 0H12.604C13.3739 0 14 0.625259 14 1.39547V4.96705C14 5.73726 13.3739 6.36364 12.604 6.36364Z" fill="#333333"/>
<path fill-rule="evenodd" clip-rule="evenodd" d="M9.03237 8.67796C8.83709 8.67796 8.67796 8.8367 8.67796 9.03196V12.6035C8.67796 12.7988 8.83709 12.9586 9.03237 12.9586H12.604C12.7993 12.9586 12.9584 12.7988 12.9584 12.6035V9.03196C12.9584 8.8367 12.7993 8.67796 12.604 8.67796H9.03237ZM12.604 14H9.03236C8.26243 14 7.63635 13.3736 7.63635 12.6034V9.03182C7.63635 8.26161 8.26243 7.63635 9.03236 7.63635H12.604C13.3739 7.63635 14 8.26161 14 9.03182V12.6034C14 13.3736 13.3739 14 12.604 14Z" fill="#333333"/>
</svg>
