<svg width="32" height="32" viewBox="0 0 32 32" fill="none" xmlns="http://www.w3.org/2000/svg">
<path d="M3.33333 26V24H12V22.6667H3.33333V6.66671H19.3333V17.94H20.6667V4.66671C20.6667 3.78265 20.3155 2.93481 19.6904 2.30968C19.0652 1.68456 18.2174 1.33337 17.3333 1.33337H5.33333C4.44928 1.33337 3.60143 1.68456 2.97631 2.30968C2.35119 2.93481 2 3.78265 2 4.66671V26C2 26.8841 2.35119 27.7319 2.97631 28.3571C3.60143 28.9822 4.44928 29.3334 5.33333 29.3334H12V28H5.33333C4.8029 28 4.29419 27.7893 3.91912 27.4142C3.54405 27.0392 3.33333 26.5305 3.33333 26ZM5.33333 2.66671H17.3333C17.8638 2.66671 18.3725 2.87742 18.7475 3.25249C19.1226 3.62757 19.3333 4.13627 19.3333 4.66671V5.33337H3.33333V4.66671C3.33333 4.13627 3.54405 3.62757 3.91912 3.25249C4.29419 2.87742 4.8029 2.66671 5.33333 2.66671V2.66671ZM9.33333 26.6667V25.3334H12V26.6667H9.33333ZM28 18.6667H14.6667C14.1362 18.6667 13.6275 18.8774 13.2525 19.2525C12.8774 19.6276 12.6667 20.1363 12.6667 20.6667V28.6667C12.6667 29.1971 12.8774 29.7058 13.2525 30.0809C13.6275 30.456 14.1362 30.6667 14.6667 30.6667H28C28.5304 30.6667 29.0391 30.456 29.4142 30.0809C29.7893 29.7058 30 29.1971 30 28.6667V20.6667C30 20.1363 29.7893 19.6276 29.4142 19.2525C29.0391 18.8774 28.5304 18.6667 28 18.6667ZM28.6667 28.6667C28.6667 28.8435 28.5964 29.0131 28.4714 29.1381C28.3464 29.2631 28.1768 29.3334 28 29.3334H14.6667C14.4899 29.3334 14.3203 29.2631 14.1953 29.1381C14.0702 29.0131 14 28.8435 14 28.6667V20.6667C14 20.4899 14.0702 20.3203 14.1953 20.1953C14.3203 20.0703 14.4899 20 14.6667 20H28C28.1768 20 28.3464 20.0703 28.4714 20.1953C28.5964 20.3203 28.6667 20.4899 28.6667 20.6667V28.6667ZM22 22H23.3333V23.3334H20.6667V24H22.6667C22.8435 24 23.013 24.0703 23.1381 24.1953C23.2631 24.3203 23.3333 24.4899 23.3333 24.6667V26.6667C23.3333 26.8435 23.2631 27.0131 23.1381 27.1381C23.013 27.2631 22.8435 27.3334 22.6667 27.3334H22V28H20.6667V27.3334H19.3333V26H22V25.3334H20C19.8232 25.3334 19.6536 25.2631 19.5286 25.1381C19.4036 25.0131 19.3333 24.8435 19.3333 24.6667V22.6667C19.3333 22.4899 19.4036 22.3203 19.5286 22.1953C19.6536 22.0703 19.8232 22 20 22H20.6667V21.3334H22V22ZM24.6667 24H27.3333V25.3334H24.6667V24ZM15.3333 24H18V25.3334H15.3333V24Z" fill="#231F20"/>
</svg>
