<svg xmlns:xlink="http://www.w3.org/1999/xlink" xmlns="http://www.w3.org/2000/svg" width="19" height="20" viewBox="0 0 19 20" fill="none" class="js-tosvg insvg">
<path fill-rule="evenodd" clip-rule="evenodd" d="M12.6075 10.5181C13.9512 10.9818 15.1828 11.7478 16.2175 12.7825C18.0118 14.5768 19 16.9625 19 19.5H17.5156C17.5156 15.0802 13.9198 11.4844 9.5 11.4844C5.08016 11.4844 1.48438 15.0802 1.48438 19.5H0C0 16.9625 0.988186 14.5768 2.7825 12.7825C3.81722 11.7478 5.0488 10.9818 6.39254 10.5181C4.95332 9.52689 4.00781 7.86799 4.00781 5.99219C4.00781 2.9638 6.47162 0.5 9.5 0.5C12.5284 0.5 14.9922 2.9638 14.9922 5.99219C14.9922 7.86799 14.0467 9.52689 12.6075 10.5181ZM5.49219 5.99219C5.49219 8.20213 7.2901 10 9.5 10C11.7099 10 13.5078 8.20213 13.5078 5.99219C13.5078 3.78225 11.7099 1.98438 9.5 1.98438C7.2901 1.98438 5.49219 3.78225 5.49219 5.99219Z" fill="#090E28"></path>
</svg>