<svg width="32" height="32" viewBox="0 0 32 32" fill="none" xmlns="http://www.w3.org/2000/svg">
<path fill-rule="evenodd" clip-rule="evenodd" d="M14.4388 22.5294C14.4388 22.9605 14.6139 23.3504 14.8964 23.633L14.8957 23.6322C15.0404 23.7775 15.2124 23.8927 15.4018 23.9712C15.5912 24.0497 15.7943 24.0901 15.9993 24.0899C16.8609 24.0906 17.5598 23.3916 17.5598 22.5294V17.5609H22.5283C23.3898 17.5616 24.0888 16.8627 24.0888 16.0004C24.0895 15.1389 23.3905 14.4399 22.5283 14.4399L17.5598 14.4399V9.47145C17.5605 8.6099 16.8616 7.91095 15.9993 7.91095C15.1378 7.91022 14.4388 8.60917 14.4388 9.47145V14.4399L9.47036 14.4399C8.6088 14.4392 7.90985 15.1381 7.90985 16.0004C7.90985 16.4315 8.08496 16.8215 8.36748 17.104L8.36675 17.1033C8.51147 17.2485 8.68348 17.3637 8.87287 17.4422C9.06227 17.5208 9.26532 17.5611 9.47035 17.5609H14.4388V22.5294Z" fill="#737982"/>
</svg>
