<svg width="16" height="16" viewBox="0 0 16 16" fill="none" xmlns="http://www.w3.org/2000/svg">
<path fill-rule="evenodd" clip-rule="evenodd" d="M15 8C15 11.866 11.866 15 8 15C4.13401 15 1 11.866 1 8C1 4.13401 4.13401 1 8 1C11.866 1 15 4.13401 15 8ZM16 8C16 12.4183 12.4183 16 8 16C3.58172 16 0 12.4183 0 8C0 3.58172 3.58172 0 8 0C12.4183 0 16 3.58172 16 8ZM7.18513 9.81479C7.41015 10.0398 7.70506 10.1519 7.99998 10.1519H7.99921C8.15055 10.1522 8.30044 10.1226 8.44028 10.0647C8.58012 10.0068 8.70715 9.92191 8.81406 9.81479L11.3715 7.25735C11.8215 6.80807 11.8215 6.07847 11.3715 5.62842C10.9222 5.17837 10.1926 5.17837 9.74257 5.62842L7.18513 8.18586C6.73508 8.63514 6.73508 9.36474 7.18513 9.81479Z" fill="#05081D"/>
</svg>
