<svg xmlns="http://www.w3.org/2000/svg" width="32" height="32" viewBox="0 0 32 32" fill="none">
<g clip-path="url(#clip0_651_2413)">
<circle cx="16" cy="16" r="15.5" stroke="#05081D"/>
<path d="M16.3213 8.19988L18.5993 12.8152L23.6923 13.5554C23.9868 13.598 24.104 13.9598 23.8915 14.1677L20.2063 17.7602L21.0765 22.8326C21.1265 23.1257 20.8193 23.3496 20.5555 23.211L16.0001 20.8164L11.4448 23.211C11.1817 23.3496 10.8738 23.1257 10.9238 22.8326L11.794 17.7602L8.1088 14.1677C7.8956 13.9598 8.01352 13.598 8.30802 13.5554L13.401 12.8152L15.679 8.19988C15.8109 7.93337 16.1907 7.93337 16.3226 8.19988H16.3213Z" fill="#05081D"/>
</g>
<defs>
<clipPath id="clip0_651_2413">
<rect width="32" height="32" fill="white"/>
</clipPath>
</defs>
</svg>