<svg xmlns="http://www.w3.org/2000/svg" xmlns:xlink="http://www.w3.org/1999/xlink" width="31" height="25" version="1.1" id="Layer_1" x="0px" y="0px" viewBox="0 0 31 25" style="enable-background:new 0 0 31 25;" xml:space="preserve" class="media-object js-tosvg insvg">
<style type="text/css">
	.st0{fill-rule:evenodd;clip-rule:evenodd;fill:#FFFFFF;filter:url(#Adobe_OpacityMaskFilter);}
	.st2{fill-rule:evenodd;clip-rule:evenodd;fill:#FFFFFF;}
</style>
<defs>
	<filter id="Adobe_OpacityMaskFilter" filterUnits="userSpaceOnUse" x="0" y="0" width="31" height="25">
		<feColorMatrix type="matrix" values="1 0 0 0 0  0 1 0 0 0  0 0 1 0 0  0 0 0 1 0"></feColorMatrix>
	</filter>
</defs>
<mask maskUnits="userSpaceOnUse" x="0" y="0" width="31" height="25" id="mask0_1_">
	<path class="st0" d="M0,0h31v25H0V0z"></path>
</mask>
<g class="st1">
	<path class="st2" d="M9.7,25c11.7,0,18.1-9.6,18.1-18c0-0.3,0-0.5,0-0.8c1.2-0.9,2.3-2,3.2-3.3c-1.1,0.5-2.4,0.8-3.7,1   c1.3-0.8,2.3-2,2.8-3.5c-1.2,0.7-2.6,1.2-4,1.5c-1.2-1.2-2.8-2-4.6-2c-3.5,0-6.4,2.8-6.4,6.3c0,0.5,0.1,1,0.2,1.4   C10,7.5,5.3,5,2.2,1.2c-0.5,0.9-0.9,2-0.9,3.2c0,2.2,1.1,4.1,2.8,5.3c-1,0-2-0.3-2.9-0.8c0,0,0,0.1,0,0.1c0,3.1,2.2,5.6,5.1,6.2   c-0.5,0.1-1.1,0.2-1.7,0.2c-0.4,0-0.8,0-1.2-0.1c0.8,2.5,3.2,4.3,5.9,4.4c-2.2,1.7-4.9,2.7-7.9,2.7c-0.5,0-1,0-1.5-0.1   C2.8,24,6.2,25,9.7,25z"></path>
</g>
</svg>