<svg width="21" height="20" viewBox="0 0 21 20" fill="none" xmlns="http://www.w3.org/2000/svg">
<path fill-rule="evenodd" clip-rule="evenodd" d="M2.20938 3.66681C1.575 3.66681 0.9625 3.96237 0.56875 4.44792C0.153126 4.93348 0.0218735 5.56681 0.174999 6.15792L1.81562 12.6601C2.03437 13.5679 2.8875 14.2013 3.85 14.2013H12.5781C13.5406 14.2013 14.3719 13.5679 14.6125 12.6601L17.2812 2.40014C17.3688 2.08348 17.6531 1.87237 17.9813 1.87237H20.2125C20.5844 1.87237 20.8906 1.57681 20.8906 1.21792C20.8906 0.859032 20.5844 0.563477 20.2125 0.563477H17.9813C17.0188 0.563477 16.1875 1.19681 15.9469 2.10459L15.5312 3.66681H2.20938ZM3.15 12.3646L1.50937 5.86237C1.44375 5.65125 1.50937 5.44014 1.64062 5.27125C1.77188 5.10237 1.99063 4.99681 2.20938 4.99681H15.1813L13.2781 12.3646C13.1906 12.6813 12.9062 12.8924 12.5781 12.8924H3.85C3.52188 12.8924 3.2375 12.6813 3.15 12.3646Z" fill="#090D27"/>
<path fill-rule="evenodd" clip-rule="evenodd" d="M14.3936 17.2415C14.3936 16.0381 13.3654 15.0459 12.1186 15.0459C10.8717 15.0459 9.84355 16.0381 9.84355 17.2415C9.84355 18.4448 10.8717 19.437 12.1186 19.437C13.3654 19.437 14.3936 18.4448 14.3936 17.2415ZM13.0154 17.2415C13.0154 17.727 12.6217 18.107 12.1186 18.107C11.6373 18.107 11.2217 17.7059 11.2217 17.2415C11.2217 16.7559 11.6154 16.3759 12.1186 16.3759C12.6217 16.3759 13.0154 16.7559 13.0154 17.2415Z" fill="#090D27"/>
<path fill-rule="evenodd" clip-rule="evenodd" d="M6.86865 17.2415C6.86865 16.0381 5.84053 15.0459 4.59365 15.0459C3.34678 15.0459 2.34053 16.0381 2.31865 17.2415C2.31865 18.4448 3.34678 19.437 4.59365 19.437C5.84053 19.437 6.86865 18.4448 6.86865 17.2415ZM5.49053 17.2415C5.49053 17.727 5.09678 18.107 4.59365 18.107C4.1124 18.107 3.69678 17.7059 3.69678 17.2415C3.69678 16.7559 4.09053 16.3759 4.59365 16.3759C5.09678 16.3759 5.49053 16.7559 5.49053 17.2415Z" fill="#090D27"/>
</svg>
