<svg width="19" height="19" viewBox="0 0 19 19" fill="none" xmlns="http://www.w3.org/2000/svg">
<path fill-rule="evenodd" clip-rule="evenodd" d="M15.1001 13.6123L18.6879 17.1895C18.8876 17.3876 19 17.6573 19 17.9387C19 18.22 18.8876 18.4897 18.6879 18.6879C18.4897 18.8876 18.22 19 17.9387 19C17.6573 19 17.3876 18.8876 17.1895 18.6879L13.6123 15.1001C12.1376 16.2577 10.3165 16.8858 8.44172 16.8834C3.77949 16.8834 0 13.104 0 8.44172C0 3.77949 3.77949 0 8.44172 0C13.104 0 16.8834 3.77949 16.8834 8.44172C16.8858 10.3165 16.2577 12.1376 15.1001 13.6123ZM8.44172 2.11043C4.94505 2.11043 2.11043 4.94505 2.11043 8.44172C2.11043 11.9384 4.94505 14.773 8.44172 14.773C11.9384 14.773 14.773 11.9384 14.773 8.44172C14.773 4.94505 11.9384 2.11043 8.44172 2.11043Z" fill="#fff"/>
</svg>
