<svg width="16" height="16" viewBox="0 0 16 16" fill="none" xmlns="http://www.w3.org/2000/svg">
<path fill-rule="evenodd" clip-rule="evenodd" d="M15 8C15 11.866 11.866 15 8 15C4.13401 15 1 11.866 1 8C1 4.13401 4.13401 1 8 1C11.866 1 15 4.13401 15 8ZM16 8C16 12.4183 12.4183 16 8 16C3.58172 16 0 12.4183 0 8C0 3.58172 3.58172 0 8 0C12.4183 0 16 3.58172 16 8ZM8.52386 9.81479C8.29883 10.0398 8.00392 10.1519 7.70901 10.1519H7.70978C7.55844 10.1522 7.40854 10.1226 7.2687 10.0647C7.12886 10.0068 7.00184 9.92191 6.89493 9.81479L4.33749 7.25735C3.88744 6.80807 3.88744 6.07847 4.33749 5.62842C4.78677 5.17837 5.51637 5.17837 5.96642 5.62842L8.52386 8.18586C8.9739 8.63514 8.9739 9.36474 8.52386 9.81479Z" fill="#05081D"/>
</svg>
