<svg xmlns="http://www.w3.org/2000/svg" width="16" height="12" viewBox="0 0 16 12" fill="none">
<path fill-rule="evenodd" clip-rule="evenodd" d="M16 10.0834L16 1.91585C16 0.974796 15.2345 0.209322 14.2935 0.209322L1.7072 0.209323C0.766144 0.209323 0.000670914 0.974796 0.000670955 1.91585L0.000671312 10.0835C0.000671353 11.0245 0.766145 11.79 1.7072 11.79L14.2941 11.79C15.2352 11.79 16 11.0245 16 10.0834ZM1.7072 10.749C1.34008 10.749 1.04166 10.4506 1.04166 10.0835L1.04166 1.91585C1.04166 1.54873 1.34008 1.25031 1.7072 1.25031L14.2941 1.25031C14.6613 1.25031 14.9597 1.54873 14.9597 1.91585L14.9597 10.0834C14.9597 10.4506 14.6613 10.749 14.2941 10.749L1.7072 10.749ZM3.50067 8.5995L3.50067 3.3897C3.50067 3.10239 3.27667 2.8692 3.00067 2.8692C2.72467 2.8692 2.50067 3.10239 2.50067 3.3897L2.50067 8.5995C2.50067 8.88681 2.72467 9.11999 3.00067 9.11999C3.27667 9.11999 3.50067 8.88681 3.50067 8.5995ZM5.50067 3.3897L5.50067 8.5995C5.50067 8.88681 5.27667 9.11999 5.00067 9.11999C4.72467 9.11999 4.50067 8.88681 4.50067 8.5995L4.50067 3.3897C4.50067 3.10239 4.72467 2.8692 5.00067 2.8692C5.27667 2.8692 5.50067 3.10239 5.50067 3.3897ZM7.50067 8.5995L7.50067 3.3897C7.50067 3.10239 7.27667 2.8692 7.00067 2.8692C6.72467 2.8692 6.50067 3.10239 6.50067 3.3897L6.50067 8.5995C6.50067 8.88681 6.72467 9.11999 7.00067 9.11999C7.27667 9.11999 7.50067 8.88681 7.50067 8.5995ZM9.50067 3.3897L9.50067 8.5995C9.50067 8.88681 9.27667 9.11999 9.00067 9.11999C8.72467 9.11999 8.50067 8.88681 8.50067 8.5995L8.50067 3.3897C8.50067 3.10239 8.72467 2.8692 9.00067 2.8692C9.27667 2.8692 9.50067 3.10239 9.50067 3.3897ZM11.5007 8.5995L11.5007 3.3897C11.5007 3.10239 11.2767 2.8692 11.0007 2.8692C10.7247 2.8692 10.5007 3.10239 10.5007 3.3897L10.5007 8.5995C10.5007 8.88681 10.7247 9.11999 11.0007 9.11999C11.2767 9.11999 11.5007 8.88681 11.5007 8.5995ZM13.5007 3.3897L13.5007 8.5995C13.5007 8.88681 13.2767 9.11999 13.0007 9.11999C12.7247 9.11999 12.5007 8.88681 12.5007 8.5995L12.5007 3.3897C12.5007 3.10239 12.7247 2.8692 13.0007 2.8692C13.2767 2.8692 13.5007 3.10239 13.5007 3.3897Z" fill="#05081D"/>
</svg>