<svg width="32" height="32" viewBox="0 0 32 32" fill="none" xmlns="http://www.w3.org/2000/svg">
<path d="M3.2 4.47998C1.44 4.47998 0 5.91998 0 7.67998V24.32C0 26.08 1.44 27.52 3.2 27.52H28.8C30.56 27.52 32 26.08 32 24.32V7.67998C32 5.91998 30.56 4.47998 28.8 4.47998H3.2ZM3.2 5.75998H28.8C29.8675 5.75998 30.72 6.61248 30.72 7.67998V24.32C30.72 25.3875 29.8675 26.24 28.8 26.24H3.2C2.1325 26.24 1.28 25.3875 1.28 24.32V7.67998C1.28 6.61248 2.1325 5.75998 3.2 5.75998Z" fill="#0066B3"/>
<g clip-path="url(#clip0_614_2865)">
<path d="M14.6171 19.0926H12.9204L13.9806 12.9109H15.6774L14.6171 19.0926Z" fill="#0066B3"/>
<path d="M11.4888 12.9109L9.87228 17.1627L9.6822 16.2465L9.11024 13.4665C9.11024 13.4665 9.04223 12.9109 8.30635 12.9109H5.63136L5.59998 13.0151C6.22627 13.1631 6.82494 13.4012 7.37516 13.7212L8.84867 19.0926H10.6169L13.318 12.9109H11.4888Z" fill="#0066B3"/>
<path d="M24.841 19.0926H26.4L25.0398 12.9109H23.6762C23.5105 12.8991 23.3451 12.9378 23.2043 13.0214C23.0634 13.105 22.9544 13.2291 22.8932 13.3756L20.3612 19.0926H22.1259L22.4747 18.1748H24.6335L24.841 19.0926ZM22.9734 16.9063L23.8645 14.5911L24.3667 16.9063H22.9734Z" fill="#0066B3"/>
<path d="M20.4937 14.3977L20.7361 13.0747C20.2458 12.9086 19.7307 12.8176 19.2102 12.8052C18.368 12.8052 16.3679 13.1541 16.3679 14.8509C16.3679 16.4484 18.715 16.4682 18.715 17.3067C18.715 18.1451 16.6085 17.9963 15.9145 17.472L15.6616 18.8496C16.2687 19.0903 16.9219 19.2091 17.5798 19.1986C18.7377 19.1986 20.485 18.6297 20.485 17.0834C20.4832 15.476 18.1151 15.3255 18.1151 14.6276C18.1151 13.9297 19.7683 14.0174 20.4937 14.3977Z" fill="#0066B3"/>
<path d="M9.6822 16.2465L9.11024 13.4665C9.11024 13.4665 9.04223 12.9109 8.30635 12.9109H5.63136L5.59998 13.0151C6.52073 13.2377 7.37975 13.6467 8.11802 14.214C8.8197 14.7485 9.35943 15.4498 9.6822 16.2465V16.2465Z" fill="#FAA634"/>
</g>
<defs>
<clipPath id="clip0_614_2865">
<rect width="20.8" height="6.4" fill="white" transform="translate(5.59998 12.8)"/>
</clipPath>
</defs>
</svg>
