<svg xmlns="http://www.w3.org/2000/svg" xmlns:xlink="http://www.w3.org/1999/xlink" width="25" height="25" version="1.1" id="Layer_1" x="0px" y="0px" viewBox="0 0 26 26" style="enable-background:new 0 0 26 26;" xml:space="preserve" class="media-object js-tosvg insvg">
<style type="text/css">
	.st0{fill-rule:evenodd;clip-rule:evenodd;fill:#FFFFFF;filter:url(#Adobe_OpacityMaskFilter);}
	.st2{fill-rule:evenodd;clip-rule:evenodd;fill:#FFFFFF;}
</style>
<defs>
	<filter id="Adobe_OpacityMaskFilter" filterUnits="userSpaceOnUse" x="0" y="0" width="25.9" height="25.9">
		<feColorMatrix type="matrix" values="1 0 0 0 0  0 1 0 0 0  0 0 1 0 0  0 0 0 1 0"></feColorMatrix>
	</filter>
</defs>
<g class="st1">
	<path class="st2" d="M26,13.1c0-7.2-5.8-13-13-13C5.8,0,0,5.9,0,13.1C0,19.6,4.8,25,11,26v-9.1H7.7v-3.8H11v-2.9   c0-3.3,1.9-5.1,4.9-5.1c1.4,0,2.9,0.3,2.9,0.3v3.2h-1.6c-1.6,0-2.1,1-2.1,2v2.4h3.6l-0.6,3.8h-3V26C21.2,25,26,19.6,26,13.1z"></path>
</g>
</svg>