<svg width="24" height="24" viewBox="0 0 24 24" fill="none" xmlns="http://www.w3.org/2000/svg">
<path d="M5.34783 7.69565C4.72514 7.69565 4.12796 7.44829 3.68766 7.00799C3.24736 6.56769 3 5.97051 3 5.34783C3 4.72514 3.24736 4.12796 3.68766 3.68766C4.12796 3.24736 4.72514 3 5.34783 3C5.97051 3 6.56769 3.24736 7.00799 3.68766C7.44829 4.12796 7.69565 4.72514 7.69565 5.34783C7.69565 5.97051 7.44829 6.56769 7.00799 7.00799C6.56769 7.44829 5.97051 7.69565 5.34783 7.69565ZM3.78261 9.26087H6.91304V21H3.78261V9.26087ZM12.3913 9.93391C13.3054 9.04957 14.3729 8.47826 15.5217 8.47826C18.7633 8.47826 21 11.1063 21 14.3478V21H17.8696V14.3478C17.8696 13.6214 17.581 12.9247 17.0673 12.411C16.5536 11.8973 15.8569 11.6087 15.1304 11.6087C14.404 11.6087 13.7073 11.8973 13.1936 12.411C12.6799 12.9247 12.3913 13.6214 12.3913 14.3478V21H9.26087V9.26087H12.3913V9.93391Z" fill="white"/>
</svg>
