<svg xmlns="http://www.w3.org/2000/svg" width="22" height="23" viewBox="0 0 22 23" fill="none" class="media-object js-tosvg insvg">
<mask id="mask0" mask-type="alpha" maskUnits="userSpaceOnUse" x="7" y="6" width="15" height="17">
<path fill-rule="evenodd" clip-rule="evenodd" d="M7.6521 6.85217H21.9754V22.4219H7.6521V6.85217Z" fill="white"></path>
</mask>
<g mask="url(#mask0)">
<path fill-rule="evenodd" clip-rule="evenodd" d="M21.6135 10.636C21.2714 9.23459 20.6053 8.06365 19.2779 7.43681C18.0106 6.83834 16.6644 6.72404 15.3049 6.98171C14.04 7.22138 13.0527 7.94175 12.3088 9.01824C12.245 9.1106 12.1996 9.2889 12.0786 9.24938C11.941 9.20442 11.9987 9.02421 11.9968 8.90185C11.9903 8.49432 11.9962 8.08668 11.9934 7.67904C11.9909 7.30708 11.9602 7.2743 11.5903 7.2736C10.4301 7.27151 9.2699 7.27203 8.10965 7.27308C7.66807 7.27343 7.65262 7.28938 7.6525 7.74327C7.65183 10.1093 7.65217 12.4754 7.65234 14.8416C7.65234 17.2375 7.65171 19.6334 7.65307 22.0293C7.65324 22.3972 7.67642 22.4201 8.03344 22.4207C9.25168 22.4224 10.4699 22.4218 11.6882 22.4213C12.1745 22.4212 12.1774 22.4189 12.1775 21.9274C12.1781 19.5514 12.1719 17.1753 12.1813 14.7993C12.1844 14.0329 12.2443 13.2697 12.5179 12.5425C12.9273 11.4549 13.8775 10.8934 15.1792 10.9733C16.2851 11.0413 16.9579 11.6399 17.2355 12.8119C17.3689 13.3751 17.4078 13.9496 17.4078 14.5278C17.4076 17.0231 17.4074 19.5185 17.4084 22.0138C17.4085 22.4029 17.4255 22.4204 17.8 22.4208C19.0473 22.4222 20.2946 22.4223 21.5418 22.4206C21.8933 22.4201 21.923 22.3888 21.9263 22.0289C21.943 20.1903 21.9062 18.3517 21.9597 16.5129C21.9949 15.3011 21.9672 14.0881 21.9144 12.8763C21.8815 12.1197 21.7929 11.3707 21.6135 10.636Z" fill="white"></path>
</g>
<mask id="mask1" mask-type="alpha" maskUnits="userSpaceOnUse" x="0" y="0" width="6" height="6">
<path fill-rule="evenodd" clip-rule="evenodd" d="M0 0.0180664H5.88131V5.93767H0V0.0180664Z" fill="white"></path>
</mask>
<g mask="url(#mask1)">
<path fill-rule="evenodd" clip-rule="evenodd" d="M2.96136 0.0180682C1.31563 0.016292 -0.00496388 1.33119 1.40267e-05 2.96656C0.00492892 4.5864 1.36415 5.94843 2.96489 5.93764C4.58454 5.92673 5.87741 4.61494 5.88131 2.97849C5.88541 1.29554 4.6272 0.0198444 2.96136 0.0180682Z" fill="white"></path>
</g>
<path fill-rule="evenodd" clip-rule="evenodd" d="M4.69042 6.81624C3.53353 6.81442 2.37659 6.81418 1.2197 6.81653C0.882653 6.81723 0.847056 6.85693 0.847003 7.23581C0.845896 12.0753 0.845896 16.9148 0.847161 21.7543C0.847214 22.115 0.878382 22.1465 1.20962 22.147C2.3575 22.1487 3.50532 22.1482 4.65319 22.1476C5.07256 22.1473 5.07656 22.1432 5.07667 21.6749C5.07714 19.2903 5.07693 16.9058 5.07677 14.5212C5.07677 12.0965 5.0773 9.67167 5.07625 7.24691C5.07609 6.84524 5.05078 6.81682 4.69042 6.81624Z" fill="white"></path>
</svg>