<svg width="32" height="32" viewBox="0 0 32 32" fill="none" xmlns="http://www.w3.org/2000/svg">
<path d="M3.2 4.47998C1.44 4.47998 0 5.91998 0 7.67998V24.32C0 26.08 1.44 27.52 3.2 27.52H28.8C30.56 27.52 32 26.08 32 24.32V7.67998C32 5.91998 30.56 4.47998 28.8 4.47998H3.2ZM3.2 5.75998H28.8C29.8675 5.75998 30.72 6.61248 30.72 7.67998V24.32C30.72 25.3875 29.8675 26.24 28.8 26.24H3.2C2.1325 26.24 1.28 25.3875 1.28 24.32V7.67998C1.28 6.61248 2.1325 5.75998 3.2 5.75998Z" fill="#231F20"/>
<g clip-path="url(#clip0_614_2873)">
<path d="M19.0283 10.5602H12.9718V21.4427H19.0283V10.5602Z" fill="#FF5F00"/>
<path d="M13.3564 16.0007C13.3569 14.9542 13.5941 13.9213 14.0502 12.9794C14.5063 12.0375 15.1694 11.211 15.9901 10.5616C15.1225 9.88108 14.1048 9.41776 13.0218 9.21027C11.9388 9.00278 10.8219 9.05713 9.7642 9.36878C8.70648 9.68043 7.73856 10.2404 6.9411 11.0019C6.14364 11.7635 5.53974 12.7046 5.17972 13.7468C4.8197 14.7891 4.71399 15.9023 4.8714 16.9937C5.02881 18.0851 5.44478 19.123 6.08465 20.021C6.72451 20.9191 7.56974 21.6512 8.5499 22.1564C9.53006 22.6615 10.6168 22.9251 11.7194 22.9252C13.2683 22.9262 14.7722 22.4043 15.9875 21.4441C15.165 20.7955 14.5008 19.9685 14.045 19.0254C13.5892 18.0824 13.3537 17.0481 13.3564 16.0007V16.0007Z" fill="#EB001B"/>
<path d="M27.2 15.9993C27.2018 17.2977 26.838 18.5703 26.1501 19.6716C25.4623 20.7728 24.4783 21.6581 23.3107 22.2261C22.1432 22.7941 20.8393 23.0219 19.5483 22.8834C18.2573 22.7448 17.0314 22.2456 16.011 21.4427C16.8324 20.7935 17.4961 19.9666 17.9524 19.0243C18.4087 18.0819 18.6458 17.0485 18.6458 16.0015C18.6458 14.9545 18.4087 13.921 17.9524 12.9787C17.4961 12.0363 16.8324 11.2095 16.011 10.5602C17.0317 9.75977 18.2569 9.26235 19.5468 9.12474C20.8366 8.98713 22.1392 9.21488 23.3058 9.78198C24.4724 10.3491 25.4562 11.2327 26.1447 12.3321C26.8333 13.4314 27.199 14.7021 27.2 15.9993V15.9993Z" fill="#F79E1B"/>
</g>
<defs>
<clipPath id="clip0_614_2873">
<rect width="22.4" height="13.8438" fill="white" transform="translate(4.80005 9.07996)"/>
</clipPath>
</defs>
</svg>
