<svg xmlns="http://www.w3.org/2000/svg" width="32" height="32" viewBox="0 0 32 32" fill="none">
<g clip-path="url(#clip0_651_2419)">
<circle cx="16" cy="16" r="15.5" stroke="#05081D"/>
<path fill-rule="evenodd" clip-rule="evenodd" d="M14.4019 9H9.58605C8.71153 9 8 9.71153 8 10.586V21.2806C8 22.1551 8.71153 22.8666 9.58605 22.8666H14.933C15.182 22.8666 15.3841 22.6645 15.3841 22.4155C15.3841 22.1665 15.182 21.9644 14.933 21.9644H9.58605C9.20893 21.9644 8.90219 21.6577 8.90219 21.2806V10.586C8.90219 10.2089 9.20893 9.90219 9.58605 9.90219H14.4019C14.779 9.90219 15.0858 10.2089 15.0858 10.586V13.6072C15.0858 13.8562 15.2879 14.0583 15.5369 14.0583C15.7859 14.0583 15.988 13.8562 15.988 13.6072V10.586C15.988 9.71153 15.2764 9 14.4019 9ZM24 15.5264V16.4688H12.2643V15.5264C12.2643 15.1625 12.5591 14.8678 12.9229 14.8678H23.3414C23.7053 14.8678 24 15.1625 24 15.5264ZM12.2643 17.3704H24V20.6129C24 20.9768 23.7053 21.2715 23.3414 21.2715H12.9229C12.5591 21.2715 12.2643 20.9768 12.2643 20.6129V17.3704ZM10.2122 11.1317C10.2122 10.8827 10.4143 10.6806 10.6633 10.6806H13.3319C13.5809 10.6806 13.783 10.8827 13.783 11.1317C13.783 11.3807 13.5809 11.5828 13.3319 11.5828H10.6633C10.4143 11.5828 10.2122 11.3807 10.2122 11.1317Z" fill="#05081D"/>
</g>
<defs>
<clipPath id="clip0_651_2419">
<rect width="32" height="32" fill="white"/>
</clipPath>
</defs>
</svg>